<?xml version="1.0" standalone="no"?>
<!DOCTYPE svg PUBLIC "-//W3C//DTD SVG 20010904//EN"
 "http://www.w3.org/TR/2001/REC-SVG-20010904/DTD/svg10.dtd">
<svg version="1.0" xmlns="http://www.w3.org/2000/svg"
 width="296.000000pt" height="296.000000pt" viewBox="0 0 296.000000 296.000000"
 preserveAspectRatio="xMidYMid meet">
<metadata>
Created by potrace 1.11, written by Peter Selinger 2001-2013
</metadata>
<g transform="translate(0.000000,296.000000) scale(0.100000,-0.100000)"
fill="#000000" stroke="none">
<path d="M1285 2949 c-232 -32 -475 -129 -669 -267 -108 -76 -266 -236 -344
-347 -113 -160 -199 -357 -244 -563 -32 -140 -32 -444 0 -584 30 -137 65 -236
126 -363 198 -406 573 -695 1034 -797 140 -32 444 -32 584 0 137 30 236 65
363 126 406 198 695 573 797 1034 32 140 32 444 0 584 -45 206 -131 403 -244
563 -81 115 -238 272 -353 353 -159 112 -359 200 -558 243 -108 23 -381 33
-492 18z"/>
</g>
</svg>
